<svg width="42" height="42" viewBox="0 0 42 42" fill="none" xmlns="http://www.w3.org/2000/svg">
<circle cx="21" cy="21" r="21" fill="#072659"/>
<path d="M20.2002 15.6621V14.0098H21.7998V15.6621C23.4404 15.75 24.7354 16.2451 25.6846 17.1475C26.6338 18.0439 27.1084 19.1602 27.1084 20.4961C27.1084 21.8027 26.6484 22.9131 25.7285 23.8271C24.8086 24.7412 23.499 25.2451 21.7998 25.3389V27H20.2002V25.3389C18.6768 25.2803 17.4082 24.8174 16.3945 23.9502C15.3809 23.0771 14.874 21.9258 14.874 20.4961C14.874 19.0605 15.3779 17.9121 16.3857 17.0508C17.3994 16.1895 18.6709 15.7266 20.2002 15.6621ZM21.7998 17.1211V23.8711C22.9014 23.8184 23.7686 23.499 24.4014 22.9131C25.0342 22.3271 25.3506 21.5215 25.3506 20.4961C25.3506 19.4883 25.04 18.6914 24.4189 18.1055C23.7979 17.5137 22.9248 17.1855 21.7998 17.1211ZM20.2002 17.1299C19.1396 17.1768 18.2812 17.4902 17.625 18.0703C16.9688 18.6504 16.6406 19.459 16.6406 20.4961C16.6406 21.5215 16.9629 22.3271 17.6074 22.9131C18.2578 23.499 19.1221 23.8154 20.2002 23.8623V17.1299Z" fill="white"/>
</svg>
